#!OML:ASF F:\VICON\USERDATA\INSTALL\rory3\rory3.ASF
:FULLY-SPECIFIED
:DEGREES
568
root -0.406159 16.0625 37.6587 1.52071 4.23929 -0.586013
lowerback 11.5719 1.45492 -4.2855
upperback -5.19948 1.38529 1.21111
thorax -12.3731 1.06643 3.44379
lowerneck -10.334 -6.70249 -4.60912
upperneck 21.3292 -9.25153 3.52816
head 8.73847 -4.38151 0.952679
rclavicle 1.15761e-014 2.13694e-014
rhumerus -31.9535 2.09195 -84.8056
rradius 34.7853
rwrist 3.80266
rhand -12.3023 20.7392
rfingers 7.12502
rthumb 13.7657 -8.7854
lclavicle 1.15761e-014 2.13694e-014
lhumerus -41.5955 5.56037 85.5459
lradius 25.316
lwrist 1.59919
lhand -4.95735 18.6674
lfingers 7.12502
lthumb 20.8344 47.5688
rfemur 13.3235 11.1181 30.2972
rtibia 4.54744
rfoot -14.4071 -11.0555
rtoes 27.3138
lfemur -34.7241 -26.0526 -11.3089
ltibia 27.429
lfoot -16.1434 20.4059
ltoes 13.8249
569
root -0.39585 16.0531 37.7691 1.40038 4.08439 -1.02511
lowerback 12.0615 1.47286 -4.03061
upperback -5.4086 1.45081 1.37699
thorax -12.9162 1.10089 3.46306
lowerneck -10.1632 -6.66699 -4.53583
upperneck 21.4604 -9.20697 3.42553
head 8.74087 -4.36703 0.916518
rclavicle 2.46959e-014 1.15792e-014
rhumerus -32.4689 1.93431 -84.8185
rradius 33.9553
rwrist 3.5967
rhand -12.3867 20.7011
rfingers 7.12502
rthumb 13.6843 -8.82905
lclavicle 2.46959e-014 1.15792e-014
lhumerus -41.9174 5.43619 85.5488
lradius 25.5164
lwrist 1.58975
lhand -4.81651 18.8044
lfingers 7.12502
lthumb 20.9697 47.6908
rfemur 13.736 10.9117 30.7939
rtibia 4.61649
rfoot -14.2801 -10.857
rtoes 26.0962
lfemur -34.6695 -26.3298 -10.6919
ltibia 27.0428
lfoot -16.48 20.3389
ltoes 14.1465
570
root -0.38289 16.0438 37.8857 1.23304 3.8266 -1.43575
lowerback 11.9006 1.5235 -3.71817
upperback -5.16602 1.59534 1.50444
thorax -12.5435 1.13785 3.3951
lowerneck -10.3359 -6.6896 -4.51458
upperneck 21.3009 -9.24301 3.49351
head 8.72208 -4.37414 0.92734
rclavicle 1.34242e-014 -5.36719e-015
rhumerus -32.1542 1.47009 -84.7218
rradius 32.8695
rwrist 3.53277
rhand -12.4016 20.8955
rfingers 7.12502
rthumb 13.67 -8.63554
lclavicle 1.34242e-014 -5.36719e-015
lhumerus -41.4252 5.36494 85.6048
lradius 25.4832
lwrist 1.5637
lhand -4.75265 18.9381
lfingers 7.12502
lthumb 21.0311 47.8177
rfemur 14.0694 10.7986 31.2466
rtibia 4.85409
rfoot -14.1734 -10.7285
rtoes 24.5538
lfemur -34.4938 -26.6079 -10.1634
ltibia 26.6836
lfoot -16.1859 20.6348
ltoes 12.6167
571
root -0.354816 16.0323 38.0108 1.13921 3.67119 -1.36773
lowerback 12.083 1.52545 -3.81366
upperback -5.31954 1.57883 1.54037
thorax -12.8362 1.14864 3.49106
lowerneck -10.0358 -6.63577 -4.5741
upperneck 21.3562 -9.16269 3.45251
head 8.6832 -4.35029 0.942556
rclavicle -7.12519e-015 -1.98785e-015
rhumerus -32.738 1.17954 -84.5327
rradius 31.997
rwrist 3.90858
rhand -12.3297 21.1039
rfingers 7.12502
rthumb 13.7393 -8.42246
lclavicle -7.12519e-015 -1.98785e-015
lhumerus -41.7697 5.41167 85.6027
lradius 25.5973
lwrist 1.67095
lhand -4.85437 18.8448
lfingers 7.12502
lthumb 20.9333 47.7353
rfemur 14.7123 10.6035 31.096
rtibia 4.6795
rfoot -14.0201 -10.5779
rtoes 22.5887
lfemur -34.4051 -27.11 -10.2545
ltibia 26.4501
lfoot -15.5861 21.2809
ltoes 9.84637
572
root -0.326572 16.0181 38.1349 1.04959 3.5664 -1.30739
lowerback 12.1058 1.49337 -3.8973
upperback -5.29475 1.52209 1.55772
thorax -12.8198 1.12906 3.5709
lowerneck -10.0418 -6.56514 -4.51355
upperneck 21.3455 -9.0677 3.41964
head 8.67161 -4.30439 0.932767
rclavicle -2.16551e-014 1.3418e-015
rhumerus -32.9294 0.88319 -84.435
rradius 31.0053
rwrist 4.38932
rhand -12.2598 21.2524
rfingers 7.12502
rthumb 13.8066 -8.26947
lclavicle -2.16551e-014 1.3418e-015
lhumerus -41.7777 5.42672 85.585
lradius 25.7336
lwrist 1.72456
lhand -4.84807 18.921
lfingers 7.12502
lthumb 20.9394 47.8108
rfemur 15.4382 10.3598 30.9555
rtibia 4.4611
rfoot -13.9223 -10.2813
rtoes 21.1664
lfemur -34.2199 -27.2023 -10.5655
ltibia 26.3144
lfoot -15.1048 21.2514
ltoes 8.42549
573
root -0.307175 15.9965 38.262 0.851648 3.40266 -1.40161
lowerback 12.1573 1.5002 -3.93392
upperback -5.15719 1.53084 1.62081
thorax -12.6969 1.13435 3.65911
lowerneck -10.3625 -6.55364 -4.5081
upperneck 21.4592 -9.05228 3.44514
head 8.76973 -4.28726 0.929381
rclavicle 2.65874e-015 1.76421e-014
rhumerus -32.8968 0.610031 -84.3982
rradius 29.832
rwrist 4.642
rhand -12.522 21.3506
rfingers 7.12502
rthumb 13.5539 -8.18823
lclavicle 2.65874e-015 1.76421e-014
lhumerus -41.4836 5.42443 85.5585
lradius 25.6012
lwrist 1.78548
lhand -4.85953 18.9073
lfingers 7.12502
lthumb 20.9284 47.7983
rfemur 16.4988 10.1443 31.0523
rtibia 3.87003
rfoot -13.5936 -10.0147
rtoes 20.4859
lfemur -33.8644 -27.0016 -10.8365
ltibia 26.3247
lfoot -14.7835 20.6836
ltoes 9.41491
574
root -0.290613 15.9734 38.3945 0.692086 3.17319 -1.5709
lowerback 12.1177 1.55852 -3.90937
upperback -5.05543 1.6246 1.69772
thorax -12.567 1.176 3.70883
lowerneck -10.525 -6.58564 -4.49771
upperneck 21.4516 -9.09528 3.45565
head 8.79899 -4.30288 0.920517
rclavicle -6.95125e-015 -1.00386e-014
rhumerus -33.0071 -0.0114235 -84.2043
rradius 28.678
rwrist 5.16855
rhand -12.7051 21.5082
rfingers 7.12502
rthumb 13.3775 -8.04231
lclavicle -6.95125e-015 -1.00386e-014
lhumerus -41.2468 5.21006 85.619
lradius 25.5286
lwrist 1.94685
lhand -4.91722 18.7882
lfingers 7.12502
lthumb 20.8729 47.6854
rfemur 17.8244 10.0017 31.2137
rtibia 2.74144
rfoot -13.1289 -9.64345
rtoes 20.3102
lfemur -33.5146 -26.6765 -11.052
ltibia 26.4724
lfoot -14.6387 19.965
ltoes 11.6969
575
root -0.260087 15.9541 38.5257 0.692706 2.9872 -1.66359
lowerback 11.8102 1.57453 -3.72421
upperback -4.9567 1.68903 1.70019
thorax -12.2651 1.18363 3.59453
lowerneck -10.5918 -6.60138 -4.42519
upperneck 21.3484 -9.10925 3.3926
head 8.76975 -4.31024 0.885196
rclavicle 1.00821e-014 -5.91384e-015
rhumerus -33.0371 -0.859334 -83.8558
rradius 27.5502
rwrist 6.1584
rhand -12.4669 21.3354
rfingers 7.12502
rthumb 13.607 -8.19985
lclavicle 1.00821e-014 -5.91384e-015
lhumerus -41.0513 4.9208 85.7053
lradius 25.5911
lwrist 2.1302
lhand -4.89827 18.8818
lfingers 7.12502
lthumb 20.8912 47.7769
rfemur 18.3911 9.86563 31.1882
rtibia 2.65975
rfoot -13.1507 -9.21905
rtoes 19.9419
lfemur -33.2911 -26.2285 -11.4267
ltibia 26.6701
lfoot -13.8629 19.2752
ltoes 10.8588
576
root -0.22167 15.9414 38.6524 0.759876 2.91312 -1.55876
lowerback 11.7878 1.5398 -3.71578
upperback -5.08287 1.64192 1.68021
thorax -12.3906 1.16457 3.57864
lowerneck -10.4696 -6.58655 -4.43492
upperneck 21.3895 -9.07407 3.30438
head 8.75588 -4.30544 0.865262
rclavicle -1.63003e-014 2.88238e-015
rhumerus -33.5026 -1.37247 -83.5345
rradius 26.4998
rwrist 6.85649
rhand -12.3261 21.3178
rfingers 7.12502
rthumb 13.7427 -8.20836
lclavicle -1.63003e-014 2.88238e-015
lhumerus -41.2817 4.80802 85.7229
lradius 25.7518
lwrist 2.14456
lhand -4.61086 19.0894
lfingers 7.12502
lthumb 21.1673 47.9538
rfemur 18.3343 9.64314 30.8941
rtibia 3.54689
rfoot -13.5145 -8.82288
rtoes 19.5148
lfemur -33.3163 -25.8478 -11.9731
ltibia 26.9168
lfoot -12.2755 18.6001
ltoes 7.42192
577
root -0.188085 15.9147 38.7833 0.744321 2.78365 -1.50608
lowerback 11.8632 1.52514 -3.73491
upperback -5.20851 1.61425 1.66412
thorax -12.5786 1.15835 3.57739
lowerneck -10.4786 -6.57335 -4.46515
upperneck 21.5607 -9.062 3.31586
head 8.81775 -4.29931 0.872762
rclavicle -2.23322e-014 -1.88845e-015
rhumerus -33.9902 -1.84508 -83.3205
rradius 25.3293
rwrist 7.16631
rhand -12.3918 21.3831
rfingers 7.12502
rthumb 13.6794 -8.14732
lclavicle -2.23322e-014 -1.88845e-015
lhumerus -41.4922 4.82919 85.6274
lradius 25.7834
lwrist 1.95552
lhand -4.50425 19.186
lfingers 7.12502
lthumb 21.2697 48.0389
rfemur 18.5349 9.45425 30.6935
rtibia 4.15299
rfoot -13.6916 -8.48096
rtoes 18.4341
lfemur -32.7872 -24.8978 -12.8122
ltibia 27.2842
lfoot -11.0619 16.8621
ltoes 8.4973
